<svg xmlns="http://www.w3.org/2000/svg" width="331" height="33" fill="none"><g clip-path="url(#a)"><path fill="#039" stroke="#fff" stroke-width=".5" d="M.25 3.2h40.36v26.75H.25V3.2Z"/><path fill="#FC0" d="m20.4 5.98-.46 1.44.72.23-.25-1.67Z"/><path fill="#FC0" d="m20.4 5.98.47 1.44-.72.23.26-1.67Z"/><path fill="#FC0" d="M21.86 7.03h-1.51v.75l1.5-.75Z"/><path fill="#FC0" d="m21.86 7.03-1.23.89-.44-.62 1.67-.27Z"/><path fill="#FC0" d="m21.31 8.72-.47-1.44-.71.23 1.18 1.21Z"/><path fill="#FC0" d="m21.31 8.72-1.22-.89.44-.61.78 1.5Z"/><path fill="#FC0" d="M19 7.03h1.5v.75L19 7.03Z"/><path fill="#FC0" d="m19 7.03 1.22.89.44-.62-1.67-.27Z"/><path fill="#FC0" d="M19.54 8.72 20 7.28l.72.23-1.2 1.21Z"/><path fill="#FC0" d="m19.54 8.72 1.22-.89-.44-.61-.78 1.5ZM20.4 24.14l-.46 1.44.72.24-.25-1.68Z"/><path fill="#FC0" d="m20.4 24.14.47 1.44-.72.24.26-1.68Z"/><path fill="#FC0" d="M21.86 25.19h-1.51v.76l1.5-.76Z"/><path fill="#FC0" d="m21.86 25.19-1.23.89-.44-.61 1.67-.28Z"/><path fill="#FC0" d="m21.31 26.88-.47-1.44-.71.24 1.18 1.2Z"/><path fill="#FC0" d="M21.31 26.88 20.1 26l.44-.61.78 1.5Z"/><path fill="#FC0" d="M19 25.19h1.5v.76l-1.5-.76Z"/><path fill="#FC0" d="m19 25.19 1.22.89.44-.61-1.67-.28Z"/><path fill="#FC0" d="m19.54 26.88.47-1.44.72.24-1.2 1.2Z"/><path fill="#FC0" d="m19.54 26.88 1.22-.89-.44-.61-.78 1.5ZM11.33 15.06l-.47 1.44.72.24-.25-1.68Z"/><path fill="#FC0" d="m11.33 15.06.47 1.44-.72.24.25-1.68Z"/><path fill="#FC0" d="M12.78 16.1h-1.51v.77l1.51-.76Z"/><path fill="#FC0" d="m12.78 16.1-1.22.9-.45-.61 1.67-.28Z"/><path fill="#FC0" d="m12.23 17.8-.46-1.44-.72.24 1.18 1.2Z"/><path fill="#FC0" d="m12.23 17.8-1.22-.89.44-.61.78 1.5Z"/><path fill="#FC0" d="M9.91 16.1h1.52v.77L9.9 16.1Z"/><path fill="#FC0" d="m9.91 16.1 1.23.9.44-.61-1.67-.28Z"/><path fill="#FC0" d="m10.46 17.8.47-1.44.72.24-1.19 1.2Z"/><path fill="#FC0" d="m10.46 17.8 1.22-.89-.44-.61-.78 1.5ZM14.98 9.94l1.23-.9-.45-.6-.78 1.5Z"/><path fill="#FC0" d="m14.98 9.94.47-1.44.72.23-1.19 1.2Z"/><path fill="#FC0" d="m14.43 8.24 1.22.9.45-.62-1.67-.28Z"/><path fill="#FC0" d="M14.43 8.24h1.51V9l-1.51-.76Z"/><path fill="#FC0" d="m15.87 7.2-.47 1.44.72.23-.25-1.67Z"/><path fill="#FC0" d="m15.87 7.2.46 1.44-.71.23.25-1.67Z"/><path fill="#FC0" d="m16.76 9.94-1.23-.9.45-.6.78 1.5Z"/><path fill="#FC0" d="m16.76 9.94-.47-1.44-.72.23 1.19 1.2Z"/><path fill="#FC0" d="m17.3 8.24-1.22.9-.44-.62 1.66-.28Z"/><path fill="#FC0" d="M17.3 8.24h-1.5V9l1.5-.76ZM13.44 13.26l-.47-1.44-.72.23 1.19 1.21Z"/><path fill="#FC0" d="m13.44 13.26-1.23-.89.45-.61.78 1.5Z"/><path fill="#FC0" d="m11.68 13.26 1.22-.89-.44-.61-.78 1.5Z"/><path fill="#FC0" d="m11.68 13.26.47-1.44.72.23-1.19 1.21Z"/><path fill="#FC0" d="m11.13 11.57 1.23.89.44-.61-1.67-.28Z"/><path fill="#FC0" d="M11.13 11.57h1.52v.75l-1.52-.75Z"/><path fill="#FC0" d="m14 11.57-1.23.89-.45-.61 1.67-.28Z"/><path fill="#FC0" d="M14 11.57h-1.52v.75l1.51-.75Z"/><path fill="#FC0" d="m12.55 10.52.47 1.44-.72.24.25-1.68Z"/><path fill="#FC0" d="m12.55 10.52-.46 1.44.72.24-.26-1.68ZM14 20.65h-1.51v.76l1.51-.76Z"/><path fill="#FC0" d="m14 20.65-1.22.89-.45-.61 1.67-.28Z"/><path fill="#FC0" d="M13.46 22.34 13 20.9l-.72.24 1.2 1.2Z"/><path fill="#FC0" d="m13.46 22.34-1.22-.89.44-.61.78 1.5Z"/><path fill="#FC0" d="m11.68 22.34 1.22-.89-.44-.61-.78 1.5Z"/><path fill="#FC0" d="m11.68 22.34.47-1.44.72.23-1.19 1.21Z"/><path fill="#FC0" d="m12.58 19.6.47 1.44-.72.24.25-1.68Z"/><path fill="#FC0" d="m12.58 19.6-.47 1.44.72.24-.25-1.68Z"/><path fill="#FC0" d="M11.14 20.65h1.51v.76l-1.51-.76Z"/><path fill="#FC0" d="m11.14 20.65 1.22.89.45-.61-1.67-.28ZM17.32 23.97h-1.51v.76l1.51-.76Z"/><path fill="#FC0" d="m17.32 23.97-1.22.9-.45-.62 1.67-.28Z"/><path fill="#FC0" d="m16.78 25.66-.47-1.43-.72.23 1.2 1.2Z"/><path fill="#FC0" d="m16.78 25.66-1.22-.88.44-.62.78 1.5Z"/><path fill="#FC0" d="m15 25.66 1.22-.89-.44-.6-.78 1.5Z"/><path fill="#FC0" d="m15 25.66.47-1.44.72.24-1.19 1.2Z"/><path fill="#FC0" d="m15.9 22.93.47 1.44-.72.23.25-1.67Z"/><path fill="#FC0" d="m15.9 22.93-.47 1.44.72.23-.25-1.67Z"/><path fill="#FC0" d="M14.46 23.97h1.51v.76l-1.51-.76Z"/><path fill="#FC0" d="m14.46 23.97 1.22.9.45-.62-1.67-.28ZM29.51 15.06l.47 1.44-.72.24.25-1.68Z"/><path fill="#FC0" d="m29.51 15.06-.46 1.44.72.24-.26-1.68Z"/><path fill="#FC0" d="M28.06 16.1h1.52v.77l-1.52-.76Z"/><path fill="#FC0" d="m28.06 16.1 1.23.9.44-.61-1.67-.28Z"/><path fill="#FC0" d="m28.6 17.8.48-1.44.72.24-1.2 1.2Z"/><path fill="#FC0" d="m28.6 17.8 1.23-.89-.44-.61-.78 1.5Z"/><path fill="#FC0" d="M30.93 16.1h-1.51v.77l1.51-.76Z"/><path fill="#FC0" d="m30.93 16.1-1.22.9-.45-.61 1.67-.28Z"/><path fill="#FC0" d="m30.38 17.8-.46-1.44-.72.24 1.18 1.2Z"/><path fill="#FC0" d="m30.38 17.8-1.22-.89.44-.61.78 1.5ZM25.86 9.94l-1.23-.9.45-.6.78 1.5Z"/><path fill="#FC0" d="m25.86 9.94-.47-1.44-.72.23 1.19 1.2Z"/><path fill="#FC0" d="m26.41 8.24-1.22.9-.45-.62 1.67-.28Z"/><path fill="#FC0" d="M26.41 8.24H24.9V9l1.51-.76Z"/><path fill="#FC0" d="m24.98 7.2.46 1.44-.72.23.26-1.67Z"/><path fill="#FC0" d="m24.98 7.2-.47 1.44.72.23-.25-1.67Z"/><path fill="#FC0" d="m24.09 9.94 1.22-.9-.45-.6-.77 1.5Z"/><path fill="#FC0" d="m24.09 9.94.46-1.44.72.23-1.18 1.2Z"/><path fill="#FC0" d="m23.54 8.24 1.22.9.45-.62-1.67-.28Z"/><path fill="#FC0" d="M23.54 8.24h1.51V9l-1.51-.76ZM27.4 13.26l.47-1.44.72.24-1.18 1.2Z"/><path fill="#FC0" d="m27.4 13.26 1.23-.89-.45-.61-.77 1.5Z"/><path fill="#FC0" d="m29.16 13.26-1.22-.89.44-.61.78 1.5Z"/><path fill="#FC0" d="m29.16 13.26-.46-1.44-.72.23 1.18 1.21Z"/><path fill="#FC0" d="m29.71 11.57-1.22.89-.45-.61 1.67-.28Z"/><path fill="#FC0" d="M29.71 11.57H28.2v.76l1.51-.76Z"/><path fill="#FC0" d="m26.85 11.57 1.23.89.44-.61-1.67-.28Z"/><path fill="#FC0" d="M26.85 11.57h1.52v.75l-1.52-.75Z"/><path fill="#FC0" d="m28.29 10.52-.47 1.44.72.24-.25-1.68Z"/><path fill="#FC0" d="m28.29 10.52.47 1.44-.72.24.25-1.68ZM26.84 20.65h1.52v.76l-1.52-.76Z"/><path fill="#FC0" d="m26.84 20.65 1.23.89.44-.61-1.67-.28Z"/><path fill="#FC0" d="m27.38 22.34.47-1.44.72.24-1.19 1.2Z"/><path fill="#FC0" d="m27.38 22.34 1.23-.89-.45-.61-.78 1.5Z"/><path fill="#FC0" d="m29.16 22.34-1.22-.89.44-.61.78 1.5Z"/><path fill="#FC0" d="m29.16 22.34-.46-1.44-.72.24 1.18 1.2Z"/><path fill="#FC0" d="m28.26 19.6-.46 1.44.72.24-.26-1.68Z"/><path fill="#FC0" d="m28.26 19.6.47 1.44-.72.24.25-1.68Z"/><path fill="#FC0" d="M29.7 20.65H28.2v.76l1.51-.76Z"/><path fill="#FC0" d="m29.7 20.65-1.22.89-.45-.61 1.67-.28ZM23.52 23.97h1.52v.76l-1.52-.76Z"/><path fill="#FC0" d="m23.52 23.97 1.23.9.44-.62-1.67-.28Z"/><path fill="#FC0" d="m24.06 25.66.47-1.43.72.23-1.19 1.2Z"/><path fill="#FC0" d="m24.06 25.66 1.23-.88-.45-.62-.78 1.5Z"/><path fill="#FC0" d="m25.84 25.66-1.22-.89.44-.6.78 1.5Z"/><path fill="#FC0" d="m25.84 25.66-.46-1.43-.72.23 1.18 1.2Z"/><path fill="#FC0" d="m24.94 22.93-.46 1.44.72.23-.26-1.67Z"/><path fill="#FC0" d="m24.94 22.93.47 1.44-.72.23.25-1.67Z"/><path fill="#FC0" d="M26.38 23.97h-1.51v.76l1.51-.76Z"/><path fill="#FC0" d="m26.38 23.97-1.22.9-.45-.62 1.67-.28Z"/></g><path fill="#fff" d="M49.78 14.5V8.06h2.09c.79 0 1.3.03 1.54.1.37.1.68.3.93.63a2 2 0 0 1 .37 1.25c0 .4-.07.73-.21 1a1.88 1.88 0 0 1-1.22.94c-.31.06-.76.09-1.35.09h-.85v2.43h-1.3Zm1.3-5.35v1.83h.71c.52 0 .86-.04 1.03-.1a.86.86 0 0 0 .55-.82.83.83 0 0 0-.2-.58.9.9 0 0 0-.52-.29 6.25 6.25 0 0 0-.94-.04h-.63Zm4.89 5.35V8.06h2.73c.7 0 1.2.06 1.5.17.32.12.57.32.75.62.2.3.29.63.29 1.01 0 .49-.15.89-.43 1.2-.28.32-.7.51-1.27.6.28.16.5.34.69.54.18.2.43.54.74 1.04l.79 1.26H60.2l-.94-1.4c-.33-.5-.56-.82-.68-.95a.97.97 0 0 0-.4-.26 2.08 2.08 0 0 0-.65-.08h-.26v2.69h-1.3Zm1.3-3.72h.96c.62 0 1.01-.02 1.17-.08a.7.7 0 0 0 .36-.27.84.84 0 0 0 .14-.48c0-.22-.06-.4-.18-.53a.78.78 0 0 0-.49-.25c-.1-.02-.42-.02-.95-.02h-1.01v1.63Zm5.11.54c0-.66.1-1.2.3-1.65.14-.33.34-.63.6-.89.25-.26.53-.45.83-.58.4-.17.86-.25 1.39-.25.95 0 1.7.3 2.28.88.57.59.85 1.4.85 2.46 0 1.04-.28 1.85-.85 2.44a3 3 0 0 1-2.26.88c-.96 0-1.72-.3-2.29-.87a3.34 3.34 0 0 1-.85-2.42Zm1.34-.05c0 .73.17 1.29.5 1.67.35.37.77.56 1.3.56.51 0 .94-.19 1.27-.56.33-.38.5-.94.5-1.68s-.17-1.3-.5-1.66a1.64 1.64 0 0 0-1.28-.54c-.53 0-.97.18-1.3.55-.32.37-.49.92-.49 1.66Zm9.1.86v-1.08h2.81v2.56a4.32 4.32 0 0 1-2.76 1c-.67 0-1.25-.14-1.76-.42-.5-.29-.87-.7-1.12-1.21a3.93 3.93 0 0 1-.38-1.72c0-.67.14-1.27.42-1.8.28-.51.7-.91 1.23-1.2.42-.2.93-.31 1.55-.31.8 0 1.42.17 1.87.5.45.34.74.8.87 1.4l-1.3.23c-.08-.31-.26-.56-.5-.74a1.53 1.53 0 0 0-.94-.28c-.57 0-1.02.18-1.36.54-.34.36-.5.9-.5 1.6 0 .77.17 1.34.5 1.73.35.38.8.57 1.34.57.28 0 .55-.05.82-.16.28-.1.51-.24.7-.4v-.8h-1.48Zm4.2 2.37V8.06h2.74c.69 0 1.19.06 1.5.17.31.12.56.32.75.62.19.3.28.63.28 1.01 0 .49-.14.89-.43 1.2-.28.32-.7.51-1.27.6.28.16.51.34.7.54.18.2.43.54.74 1.04l.78 1.26h-1.55l-.94-1.4a8.8 8.8 0 0 0-.69-.95.97.97 0 0 0-.39-.26 2.08 2.08 0 0 0-.65-.08h-.27v2.69h-1.3Zm1.3-3.72h.96c.63 0 1.02-.02 1.17-.08a.7.7 0 0 0 .37-.27.84.84 0 0 0 .13-.48c0-.22-.06-.4-.18-.53a.78.78 0 0 0-.48-.25c-.11-.02-.43-.02-.95-.02h-1.02v1.63Zm11.19 3.72h-1.42l-.56-1.46h-2.57l-.53 1.46h-1.38l2.5-6.44h1.38l2.58 6.44Zm-2.4-2.55-.88-2.39-.87 2.4h1.75Zm3.26 2.55V8.06h1.94l1.17 4.4 1.16-4.4h1.95v6.44h-1.2V9.43L94.1 14.5h-1.25l-1.27-5.07v5.07h-1.21Zm7.67 0V8.06H100l1.17 4.4 1.16-4.4h1.95v6.44h-1.21V9.43l-1.28 5.07h-1.25l-1.28-5.07v5.07h-1.2Zm7.7 0V8.06h4.78v1.09h-3.48v1.43h3.23v1.08h-3.23v1.75h3.6v1.09h-4.9Zm8.6-3.18c0-.66.1-1.2.3-1.65.14-.33.34-.63.6-.89.25-.26.53-.45.83-.58.4-.17.86-.25 1.39-.25.95 0 1.7.3 2.28.88.57.59.85 1.4.85 2.46 0 1.04-.28 1.85-.85 2.44a3 3 0 0 1-2.26.88c-.96 0-1.72-.3-2.29-.87a3.33 3.33 0 0 1-.85-2.42Zm1.34-.05c0 .73.17 1.29.5 1.67.34.37.77.56 1.3.56.51 0 .94-.19 1.27-.56.33-.38.5-.94.5-1.68s-.17-1.3-.5-1.66a1.64 1.64 0 0 0-1.28-.54c-.53 0-.97.18-1.3.55-.32.37-.49.92-.49 1.66Zm6.12 3.23V8.06h4.42v1.09h-3.12v1.52h2.69v1.1h-2.69v2.73h-1.3Zm-70.57 10v-5.35h-1.91v-1.1h5.12v1.1h-1.9v5.35h-1.31Zm4.24 0v-6.44h1.3v2.53h2.55v-2.53h1.3v6.44h-1.3v-2.82h-2.55v2.82h-1.3Zm6.68 0v-6.44h4.77v1.09h-3.47v1.43h3.23v1.08h-3.23v1.75h3.6v1.09h-4.9Zm8.86 0v-6.44h4.78v1.09h-3.48v1.43h3.24v1.08H72.3v1.75h3.6v1.09h-4.9Zm6.18-6.44h1.3v3.49c0 .55.01.9.05 1.07.05.27.18.48.4.64.2.16.49.24.85.24.37 0 .65-.08.84-.23a.9.9 0 0 0 .34-.55c.03-.22.05-.59.05-1.1v-3.56h1.3v3.38a8.7 8.7 0 0 1-.1 1.64 1.8 1.8 0 0 1-1.15 1.34c-.31.13-.73.19-1.24.19-.61 0-1.08-.07-1.4-.21a2.04 2.04 0 0 1-.75-.55 1.8 1.8 0 0 1-.37-.72 7.83 7.83 0 0 1-.12-1.64v-3.43Zm6.7 6.44v-6.44h2.73c.7 0 1.2.06 1.5.17.31.12.56.32.75.62.19.3.28.63.28 1.01 0 .49-.14.89-.42 1.2-.29.32-.71.51-1.28.6.28.16.52.34.7.54.18.2.43.54.74 1.04l.79 1.26h-1.56l-.94-1.4a8.8 8.8 0 0 0-.69-.95.97.97 0 0 0-.39-.26 2.08 2.08 0 0 0-.65-.08h-.26v2.69h-1.3Zm1.3-3.72h.96c.62 0 1.01-.02 1.17-.08a.7.7 0 0 0 .36-.27.84.84 0 0 0 .13-.48c0-.22-.06-.4-.17-.53a.78.78 0 0 0-.49-.25c-.1-.02-.42-.02-.95-.02H85.2v1.63Zm5.11.54c0-.66.1-1.2.3-1.65.14-.33.34-.63.6-.89.25-.26.53-.45.83-.58.4-.17.86-.25 1.39-.25.95 0 1.7.3 2.27.88.57.59.86 1.4.86 2.46 0 1.04-.28 1.85-.85 2.44a3 3 0 0 1-2.27.88c-.95 0-1.72-.3-2.28-.87a3.33 3.33 0 0 1-.85-2.42Zm1.34-.05c0 .73.17 1.29.5 1.67.34.37.77.56 1.29.56s.94-.19 1.27-.56c.34-.38.5-.94.5-1.68s-.16-1.3-.48-1.66a1.64 1.64 0 0 0-1.3-.54c-.53 0-.96.18-1.29.55-.33.37-.49.92-.49 1.66Zm6.1 3.23v-6.44h2.1c.79 0 1.3.03 1.54.1.37.1.68.3.93.63a2 2 0 0 1 .37 1.25c0 .4-.07.73-.21 1a1.78 1.78 0 0 1-1.22.94c-.31.06-.76.09-1.35.09h-.85v2.43h-1.3Zm1.31-5.35v1.83h.71c.51 0 .86-.04 1.03-.1.17-.07.3-.18.4-.32.1-.15.15-.31.15-.5a.83.83 0 0 0-.2-.58.9.9 0 0 0-.53-.29 6.25 6.25 0 0 0-.93-.04h-.63Zm4.88 5.35v-6.44h4.78v1.09h-3.48v1.43h3.24v1.08h-3.24v1.75h3.6v1.09h-4.9Zm12 0h-1.42l-.56-1.46h-2.58l-.53 1.46h-1.38l2.5-6.44h1.39l2.58 6.44Zm-2.4-2.55-.89-2.39-.87 2.4h1.76Zm3.28 2.55v-6.44h1.27l2.63 4.3v-4.3h1.21v6.44h-1.3l-2.6-4.2v4.2h-1.2Zm9.35-6.44h1.3v3.49c0 .55.02.9.05 1.07.05.27.18.48.4.64.2.16.5.24.85.24.37 0 .65-.08.84-.23a.9.9 0 0 0 .34-.55c.04-.22.06-.59.06-1.1v-3.56h1.3v3.38c0 .77-.04 1.32-.1 1.64a1.8 1.8 0 0 1-1.16 1.34c-.31.13-.73.19-1.24.19-.61 0-1.08-.07-1.4-.21a2.04 2.04 0 0 1-.75-.55 1.8 1.8 0 0 1-.36-.72 7.83 7.83 0 0 1-.13-1.64v-3.43Zm6.7 6.44v-6.44h1.27l2.64 4.3v-4.3h1.2v6.44h-1.3l-2.6-4.2v4.2h-1.2Zm6.64 0v-6.44h1.3v6.44h-1.3Zm2.46-3.18c0-.66.1-1.2.3-1.65.14-.33.34-.63.59-.89.25-.26.53-.45.83-.58.4-.17.87-.25 1.4-.25.94 0 1.7.3 2.27.88.57.59.86 1.4.86 2.46 0 1.04-.29 1.85-.85 2.44a3 3 0 0 1-2.27.88c-.96 0-1.72-.3-2.28-.87a3.33 3.33 0 0 1-.85-2.42Zm1.34-.05c0 .73.16 1.29.5 1.67.34.37.77.56 1.29.56.51 0 .94-.19 1.27-.56.33-.38.5-.94.5-1.68s-.16-1.3-.49-1.66a1.63 1.63 0 0 0-1.28-.54c-.54 0-.97.18-1.3.55-.33.37-.5.92-.5 1.66Zm6.12 3.23v-6.44h1.26l2.64 4.3v-4.3h1.2v6.44h-1.3l-2.6-4.2v4.2h-1.2Z"/><g clip-path="url(#b)"><path fill="#fff" d="M257.36 27.22h.5v1.7h.01c.08-.15.2-.27.35-.35.15-.1.33-.15.5-.15.35 0 .93.23.93 1.14v1.62h-.47v-1.55c0-.43-.17-.8-.63-.8a.72.72 0 0 0-.7.71v1.64h-.49v-3.96Zm-1.26.61v.65h.71v.37h-.71v1.45c0 .32.1.53.37.53.1 0 .19 0 .28-.04l.04.39c-.14.04-.28.06-.43.06a.8.8 0 0 1-.55-.2 1.1 1.1 0 0 1-.18-.72v-1.47h-.4v-.37h.4v-.5l.47-.15Zm-2.53 1.49c0-.33-.02-.6-.04-.84h.43v.53h.02a.86.86 0 0 1 .75-.59h.15v.47h-.17a.7.7 0 0 0-.67.61l-.02.23v1.42h-.47l.02-1.83Zm-.8 1.2c0 .22.01.44.05.66h-.43l-.04-.35h-.02a.97.97 0 0 1-.82.4.78.78 0 0 1-.83-.77c0-.65.59-1 1.63-1v-.06a.54.54 0 0 0-.16-.45.54.54 0 0 0-.45-.16c-.26 0-.5.07-.72.2l-.1-.32c.26-.17.57-.24.88-.23.83 0 1.04.55 1.04 1.1v.98h-.02Zm-.46-.71c-.55-.02-1.14.08-1.14.61a.43.43 0 0 0 .24.43c.05.02.1.04.16.04h.06a.65.65 0 0 0 .66-.45c.02-.05.04-.1.04-.16v-.47h-.02Zm-2.2-.39h-1.45v1.37h1.63v.4h-2.12v-3.74h2.02v.4h-1.55v1.18h1.45v.4h.02Zm-6.22-.2c0-.25 0-.5-.04-.74h.45v.43h.02a1 1 0 0 1 .9-.49c.36 0 .93.23.93 1.14v1.62h-.47v-1.55c0-.43-.16-.8-.63-.8a.68.68 0 0 0-.65.49 1 1 0 0 0-.04.22v1.64h-.49l.02-1.96Zm-.61.59c0 1-.7 1.43-1.35 1.43a1.33 1.33 0 0 1-1.28-1.39c0-.86.6-1.43 1.32-1.43.74 0 1.3.55 1.3 1.39Zm-2.14.02c0 .6.35 1.04.81 1.04.47 0 .82-.43.82-1.06 0-.63-.23-1.02-.82-1.02s-.81.53-.81 1.04Zm-3.75.86c.2.12.42.18.65.18.35 0 .53-.16.53-.4 0-.23-.14-.35-.49-.5-.34-.14-.73-.43-.73-.75a.9.9 0 0 1 .91-.8c.24 0 .47.06.68.17l-.13.34c-.16-.1-.35-.16-.55-.16-.28 0-.44.16-.44.37 0 .2.16.32.5.47.35.14.7.4.7.8 0 .38-.37.8-1 .8-.26 0-.52-.05-.75-.18l.12-.34Zm-2.45-.76c0 .65.41.92.92.92.26 0 .51-.05.75-.14l.08.34c-.28.13-.58.18-.9.17-.83 0-1.32-.55-1.32-1.37 0-.82.47-1.45 1.27-1.45s1.12.78 1.12 1.27c0 .07 0 .15-.02.22h-1.9v.04Zm1.43-.37c0-.3-.14-.79-.67-.79s-.72.45-.76.8h1.43Zm-4.08-1.08.57 1.6c.08.17.14.36.19.54h.02c.04-.18.1-.37.16-.55l.53-1.57h.53l-.73 1.92c-.35.92-.6 1.39-.92 1.7-.17.15-.38.25-.61.3l-.13-.4c.16-.07.3-.15.41-.25.19-.14.33-.34.41-.55a.2.2 0 0 0 .04-.13.2.2 0 0 0-.04-.12l-1-2.46.57-.03Zm-2.7 1.45c.01.65.42.92.9.92.26 0 .51-.05.74-.14l.1.34c-.28.13-.58.18-.9.17-.83 0-1.32-.55-1.32-1.37 0-.82.47-1.45 1.27-1.45s1.12.78 1.12 1.27l-.02.22h-1.9v.04Zm1.42-.37c.02-.3-.12-.79-.67-.79s-.72.45-.74.8h1.4Zm-5.14 1.13c.2.12.42.18.66.18.34 0 .5-.16.5-.4 0-.23-.14-.35-.49-.5-.34-.14-.7-.43-.7-.75a.9.9 0 0 1 .9-.8c.24 0 .46.06.66.17l-.1.34c-.17-.1-.36-.16-.55-.16-.29 0-.45.16-.45.37 0 .2.16.32.51.47.35.14.71.4.71.8 0 .38-.36.8-1 .8a1.6 1.6 0 0 1-.75-.18l.1-.34Zm-.08-3.37c-.12.46-.3.9-.53 1.3l-.3.05c.13-.43.24-.86.32-1.3l.51-.05Zm-2.97 2.61c0 .65.4.92.91.92.25 0 .5-.05.74-.14l.1.34c-.28.13-.6.18-.9.17-.83 0-1.32-.55-1.32-1.37 0-.82.47-1.45 1.26-1.45.8 0 1.12.78 1.12 1.27a.8.8 0 0 1-.02.22h-1.9v.04Zm1.42-.37c.02-.3-.12-.79-.67-.79s-.71.45-.73.8h1.4Zm-4.87-.2-.02-.88h.43v.47h.02a1.05 1.05 0 0 1 .96-.53c.67 0 1.14.55 1.14 1.37 0 .81-.6 1.45-1.22 1.45a.94.94 0 0 1-.84-.43h-.02v1.47h-.47l.02-2.92Zm.47.71c0 .07.02.14.04.2a.77.77 0 0 0 .73.58c.53 0 .82-.4.82-1.04 0-.61-.29-1-.8-1a.8.8 0 0 0-.73.61l-.04.2v.45h-.02Zm-1.08-.26c0 1-.7 1.43-1.35 1.43a1.33 1.33 0 0 1-1.28-1.39c0-.86.6-1.43 1.33-1.43.73 0 1.3.55 1.3 1.39Zm-2.14.02c0 .6.34 1.04.81 1.04.47 0 .82-.43.82-1.06 0-.63-.22-1.02-.82-1.02-.59 0-.81.53-.81 1.04Zm-2.08-.51c0-.33 0-.6-.02-.84h.43v.53h.02a.83.83 0 0 1 .75-.59h.12v.47h-.14a.68.68 0 0 0-.67.61.89.89 0 0 0-.02.23v1.42h-.49l.02-1.83Zm-.8 1.12c0 .29 0 .53.02.74h-.42l-.04-.45a1.02 1.02 0 0 1-.9.5c-.4 0-.92-.24-.92-1.18v-1.57h.5v1.5c0 .5.16.85.58.85a.7.7 0 0 0 .66-.47.53.53 0 0 0 .04-.24v-1.64h.49v1.96Zm-3-1.02h-1.44v1.37h1.63v.4h-2.12v-3.74h2.02v.4h-1.53v1.18h1.45v.4ZM255.37 15.7c-.37.15-.71.37-1 .64-.28.25-.5.55-.65.9a2.38 2.38 0 0 0 .35 2.36c.26.33.6.59 1 .75.4.19.83.33 1.28.43.39.1.77.24 1.14.4.27.13.51.32.69.56a1.68 1.68 0 0 1-.24 2c-.3.28-.72.4-1.31.4-.44.03-.88-.08-1.26-.3a1.94 1.94 0 0 1-.68-.74 2.09 2.09 0 0 1-.18-.85h-1.24a3.05 3.05 0 0 0 2.06 2.97 4.05 4.05 0 0 0 2.42.06c.36-.12.7-.3 1-.53.29-.23.53-.52.7-.85.18-.35.26-.75.24-1.14.02-.49-.08-.98-.3-1.4-.22-.4-.53-.71-.9-.95-.4-.25-.81-.45-1.25-.59l-1.18-.4c-.3-.1-.6-.25-.86-.43a1.04 1.04 0 0 1-.4-.68 1.14 1.14 0 0 1 .24-.91c.2-.27.45-.47.75-.6.25-.08.5-.13.76-.14.34 0 .68.1.98.29.29.18.5.47.6.8h1.33a2.47 2.47 0 0 0-.22-.66 5.1 5.1 0 0 0-.55-.75 2.62 2.62 0 0 0-.88-.61c-.39-.17-.81-.25-1.24-.23-.41-.04-.83.03-1.2.2M251.18 15.93v5a2.84 2.84 0 0 1-1.67 2.56 2.61 2.61 0 0 1-2.97-.61 2.84 2.84 0 0 1-.81-1.96v-5h-1.3v4.98a4.25 4.25 0 0 0 1.18 2.87c.37.37.8.67 1.27.88a3.7 3.7 0 0 0 3.08 0 4.1 4.1 0 0 0 2.43-3.75v-4.97h-1.2ZM237.29 15.85c-.58.26-1.1.62-1.55 1.06-.44.46-.8 1-1.06 1.59a5.3 5.3 0 0 0 0 3.87 5 5 0 0 0 2.6 2.65 4.83 4.83 0 0 0 6.39-2.65l.06-.14h-1.37a3.5 3.5 0 0 1-1.77 1.63 3.59 3.59 0 0 1-3.97-.8 3.66 3.66 0 0 1-1.09-2.6c0-.5.1-1 .3-1.45.17-.45.44-.85.79-1.19a3.56 3.56 0 0 1 5.72.82h1.37l-.06-.12a4.85 4.85 0 0 0-6.36-2.67M232.09 25h1.24v-9.07h-1.24V25Zm.12-12.47a.77.77 0 0 0-.02 1.08.79.79 0 0 0 .84.16c.09-.04.17-.1.24-.16a.79.79 0 0 0 0-1.08.73.73 0 0 0-.53-.23.74.74 0 0 0-.53.23"/><path fill="#FFCB2B" d="M229.34 18.48a2.83 2.83 0 0 0-1.45-1.51 2.57 2.57 0 0 0-1.04-.23 2.86 2.86 0 0 0-1.92.86l-.34.43v.06a3.35 3.35 0 0 0 4.95 2.96v-1.53c0-.36-.07-.71-.2-1.04"/><path fill="#fff" d="M226.03 15.56a3.49 3.49 0 0 0-1.44.68c-.19.14-.35.32-.47.53v-.84h-1.25V25h1.25v-5.44c0-.36.08-.71.22-1.04.15-.33.35-.63.6-.9a2.75 2.75 0 0 1 1.91-.85c.36 0 .71.07 1.04.22.66.3 1.18.83 1.45 1.5.14.35.22.72.22 1.09v5.44h1.28l-.04-5.44c0-.55-.1-1.09-.3-1.6a4.15 4.15 0 0 0-2.12-2.18c-.48-.21-1-.32-1.53-.32a2.7 2.7 0 0 0-.82.08M220.19 16.28c-.59.26-1.12.62-1.57 1.08a.86.86 0 0 0-.19.28v-1.73h-1.22v9.07h1.22v-4.12c0-.5.1-.99.29-1.45.18-.44.45-.84.8-1.18.32-.34.72-.61 1.16-.8.44-.2.92-.3 1.4-.28V15.9c-.65 0-1.3.13-1.9.39M208.88 17.8a3.62 3.62 0 0 1 5.1-.04l.03.04c.28.3.5.64.68 1h-6.5c.18-.36.42-.7.69-1m.7-1.95a4.86 4.86 0 0 0-3 4.58 4.88 4.88 0 0 0 8.33 3.53c.44-.46.8-1 1.04-1.59l.04-.14h-1.37a3.62 3.62 0 0 1-5.7.88l-.04-.05a4.1 4.1 0 0 1-.78-1.18 3.28 3.28 0 0 1-.26-1.81h8.46a4.89 4.89 0 0 0-2.96-4.22 4.84 4.84 0 0 0-3.77 0Z"/><path fill="#fff" d="M199.56 23.9a3.74 3.74 0 0 1 0-6.85 3.68 3.68 0 0 1 2.81 0 3.64 3.64 0 0 1 1.94 1.98c.18.46.28.95.28 1.44a3.64 3.64 0 0 1-5.03 3.42m-.49-8.02a4.98 4.98 0 0 0-2.98 4.6v8.18h1.25v-5.12c.38.6.93 1.07 1.57 1.37a4.33 4.33 0 0 0 3.95.14 5 5 0 0 0 0-9.17 4.9 4.9 0 0 0-3.79 0M188.94 23.88a3.66 3.66 0 0 1-2.24-3.4c0-.5.1-1 .29-1.45.17-.45.44-.85.79-1.18a3.56 3.56 0 0 1 5.14 0 3.85 3.85 0 0 1 .77 4.07 3.64 3.64 0 0 1-3.34 2.26 4.24 4.24 0 0 1-1.4-.3m-.5-8.03a5 5 0 0 0-2.6 2.65 5.3 5.3 0 0 0 0 3.87 4.77 4.77 0 0 0 6.4 2.65 4.98 4.98 0 0 0 2.6-6.52 4.92 4.92 0 0 0-4.5-3.03c-.65 0-1.3.13-1.9.38Z"/><path fill="#fff" d="M172.13 15.54c0 8.34 6.66 15.08 14.91 15.08a14.65 14.65 0 0 0 6.63-1.6v-.03c0-.02-.02-.02-.04-.02-1.57.64-3.24.96-4.93.94-7.5 0-13.58-6.15-13.58-13.76 0-7.6 6.1-13.75 13.58-13.75a13.56 13.56 0 0 1 12.19 7.62.05.05 0 0 0 .04 0l.01-.04A14.9 14.9 0 0 0 187.06.5a14.96 14.96 0 0 0-14.94 15.04Z"/></g><g fill="#fff" clip-path="url(#c)"><path d="M314.9 15.49c-.83-.16-1.79-.19-2.28-.74a.92.92 0 0 1-.1-.93 1.93 1.93 0 0 1 1.98-.83 1.76 1.76 0 0 1 1.63.99c.1.25.17.52.18.8h2.29c.02-.89-.3-1.75-.9-2.4a5.28 5.28 0 0 0-4.44-1.2c-1.1.15-2.58.8-3.08 2.25a2.91 2.91 0 0 0 .83 3.23c1.05.8 3.02 1.02 3.82 1.2.93.19 1.4.31 1.54.83a1.17 1.17 0 0 1-.15 1.02c-.58.77-1.78.83-2.74.56-.8-.25-1.14-.9-1.3-1.76h-2.4a3.91 3.91 0 0 0 3.45 3.73c1.31.26 2.67.1 3.89-.44.49-.3.92-.68 1.26-1.14a3.37 3.37 0 0 0 .15-3.5c-.67-1.18-2.21-1.43-3.63-1.67ZM306.95 12.62a4.94 4.94 0 0 0-7.86.87c-.4.7-.67 1.47-.8 2.28-.25 1.87.28 5.02 3.58 6.25a5.36 5.36 0 0 0 4.96-.7c.9-.73 1.5-1.75 1.72-2.88h-2.74c-.12.5-.4.93-.8 1.24a2.53 2.53 0 0 1-2.93-.12c-.83-.62-1.1-1.64-1.14-3.08 0-.77.22-2 .86-2.6a2.55 2.55 0 0 1 2.4-.49 2.25 2.25 0 0 1 1.52 2.16h-3.89v1.94h6.72a7.2 7.2 0 0 0-1.6-4.87ZM329.7 19.36v-3.33c0-.84-.07-1.69-.22-2.52-.19-.8-.9-2.13-3.18-2.4-.42-.04-.88-.04-1.33-.04h-.02c-.75.02-1.49.16-2.2.4a3.4 3.4 0 0 0-2.03 3.27h2.46a1.6 1.6 0 0 1 .96-1.54c.26-.1.54-.16.83-.16a2.25 2.25 0 0 1 1.64.53 1.08 1.08 0 0 1 .28 1.05c-.15.64-.86.86-1.94 1.01-.36.07-.79.1-1.24.16-1.3.15-3.14.8-3.57 2.68a3.1 3.1 0 0 0 1.1 2.98c.78.56 1.72.86 2.68.84.35 0 .7-.03 1.05-.1.8-.19 1.54-.57 2.17-1.1.06.3.16.6.3.89h2.6a6.21 6.21 0 0 1-.35-2.62Zm-2.78-.4a2.2 2.2 0 0 1-1.97 1.26c-.2.05-.4.06-.6.03a1.46 1.46 0 0 1-1.35-.77 1.24 1.24 0 0 1 .06-1.2c.37-.64 1.02-.77 1.91-.95.3-.04.6-.1.9-.19.43-.06.84-.25 1.17-.52.04.78 0 1.57-.12 2.34ZM289.38 22.59a6.28 6.28 0 0 1-4.09-8.38 5.09 5.09 0 0 1 7.54-2.25c2.64 1.9 2.36 5.53 2.36 5.53h-6.77v-1.94h3.93a1.86 1.86 0 0 0-.55-1.48 2.38 2.38 0 0 0-2.94-.48c-.76.4-1.74 2.08-1.16 4.5.55 1.82 2.26 2.55 3.8 2.55 2.3 0 4.03-1.6 4.04-4.22a9.7 9.7 0 1 0-2.31 6.27 6.2 6.2 0 0 1-3.85-.1Zm-8.58-4.96a1.1 1.1 0 1 1 0-2.21 1.1 1.1 0 0 1 0 2.2Z"/></g><defs><clipPath id="a"><path fill="#fff" d="M0 2.5h41.13v28H0z"/></clipPath><clipPath id="b"><path fill="#fff" d="M172.13.5h87.63v32h-87.63z"/></clipPath><clipPath id="c"><path fill="#fff" d="M275.77 6.5h55v20h-55z"/></clipPath></defs></svg>