<svg class="svg-icon" style="width: 1em;height: 1em;vertical-align: middle;fill: currentColor;overflow: hidden;" viewBox="0 0 1024 1024" version="1.1" xmlns="http://www.w3.org/2000/svg"><path d="M897.28 622.293333a408.533333 408.533333 0 0 0 4.48-55.893333A391.68 391.68 0 0 0 654.506667 200.106667a142.72 142.72 0 0 0-285.013334 0A391.68 391.68 0 0 0 122.24 566.4a408.533333 408.533333 0 0 0 4.48 55.893333A148.053333 148.053333 0 0 0 64 743.466667a145.28 145.28 0 0 0 143.146667 146.773333 137.386667 137.386667 0 0 0 64-15.36 385.706667 385.706667 0 0 0 483.413333 0 137.386667 137.386667 0 0 0 64 15.36A145.28 145.28 0 0 0 960 743.466667a147.626667 147.626667 0 0 0-62.72-121.173334zM512 140.586667a70.186667 70.186667 0 1 1-68.48 69.973333A69.333333 69.333333 0 0 1 512 140.586667zM138.666667 743.466667a68.48 68.48 0 1 1 68.48 70.186666 69.333333 69.333333 0 0 1-68.48-70.186666z m188.586666 79.573333a149.333333 149.333333 0 0 0 23.04-79.573333A145.066667 145.066667 0 0 0 207.146667 597.333333h-8.533334a300.586667 300.586667 0 0 1-1.706666-30.933333A315.733333 315.733333 0 0 1 384 277.333333a141.013333 141.013333 0 0 0 256 0 315.733333 315.733333 0 0 1 187.52 289.92 300.586667 300.586667 0 0 1-2.133333 30.08h-8.533334a145.066667 145.066667 0 0 0-143.146666 146.56 149.333333 149.333333 0 0 0 23.04 79.573334 312.96 312.96 0 0 1-369.493334 0z m490.666667-9.386667a70.186667 70.186667 0 1 1 68.48-70.186666 69.333333 69.333333 0 0 1-69.546667 70.186666z"  /></svg>